<svg width="248" height="73" viewBox="0 0 248 73" fill="none" xmlns="http://www.w3.org/2000/svg">
<g clip-path="url(#clip0_0_3)">
<path d="M47.891 26.079C47.6594 28.9288 47.5205 31.7723 47.4772 34.6097H55.2707C55.3417 31.408 55.5918 28.197 56.021 24.9799C53.3131 25.4276 50.602 25.795 47.8879 26.079H47.891Z" fill="white"/>
<path d="M55.2707 38.3888H47.4772C47.5205 41.2262 47.6594 44.0698 47.891 46.9195C50.6051 47.2004 53.3162 47.5709 56.0241 48.0186C55.5949 44.8046 55.3417 41.5936 55.2707 38.3888Z" fill="white"/>
<path d="M32.1126 38.3888H24.2851C24.2481 41.1212 24.1215 43.8536 23.9177 46.5829C26.6473 46.3761 29.3799 46.2526 32.1126 46.2155V38.3888Z" fill="white"/>
<path d="M43.7194 38.3888H35.892V46.2155C38.6246 46.2526 41.3573 46.3792 44.0869 46.5829C43.88 43.8536 43.7565 41.1212 43.7194 38.3888Z" fill="white"/>
<path d="M49.4534 13.865C48.9655 16.6561 48.5672 19.4502 48.2584 22.2413C51.0498 21.9326 53.8442 21.5343 56.6355 21.0465C57.1913 17.9281 57.9169 14.8098 58.8093 11.6914C55.6907 12.5837 52.572 13.3062 49.4534 13.865Z" fill="white"/>
<path d="M8.95135 34.6097C8.87107 31.1764 8.57465 27.7308 8.06517 24.279C5.37265 23.7541 2.68631 23.149 -3.26829e-05 22.4636C0.68236 26.5205 1.07142 30.5713 1.16096 34.6128H8.94827L8.95135 34.6097Z" fill="white"/>
<path d="M11.366 21.0496C14.1573 21.5374 16.9517 21.9357 19.743 22.2444C19.4343 19.4533 19.0359 16.6592 18.5481 13.8681C15.4294 13.3124 12.3108 12.5868 9.19219 11.6945C10.0846 14.8129 10.8071 17.9312 11.366 21.0496Z" fill="white"/>
<path d="M35.892 23.0255C38.7296 22.9823 41.5734 22.8434 44.4234 22.6118C44.7044 19.8979 45.0749 17.1871 45.5227 14.4794C42.3083 14.9086 39.0971 15.1587 35.892 15.2297V23.0255Z" fill="white"/>
<path d="M23.5811 22.6118C26.4311 22.8433 29.2749 22.9823 32.1126 23.0255V15.2327C28.9106 15.1617 25.6993 14.9116 22.4819 14.4825C22.9296 17.1902 23.2971 19.8979 23.5811 22.6118Z" fill="white"/>
<path d="M35.892 26.783V34.6097H43.7194C43.7565 31.8773 43.8831 29.1449 44.0869 26.4156C41.3573 26.6224 38.6246 26.7459 35.892 26.783Z" fill="white"/>
<path d="M20.1136 46.9195C20.3452 44.0698 20.4841 41.2262 20.5273 38.3888H12.7339C12.6628 41.5905 12.4127 44.8015 11.9835 48.0186C14.6915 47.5709 17.3994 47.2035 20.1136 46.9195Z" fill="white"/>
<path d="M24.2851 34.6097H32.1126V26.783C29.3799 26.7459 26.6473 26.6194 23.9177 26.4156C24.1246 29.1449 24.2481 31.8773 24.2851 34.6097Z" fill="white"/>
<path d="M12.7308 34.6097H20.5242C20.481 31.7723 20.3421 28.9288 20.1105 26.079C17.3964 25.7981 14.6853 25.4276 11.9773 24.9799C12.4065 28.1939 12.6597 31.4049 12.7308 34.6097Z" fill="white"/>
<path d="M8.95135 38.3888H1.16096C1.07142 42.4303 0.68236 46.4811 -3.26829e-05 50.538C2.68322 49.8495 5.37265 49.2443 8.06517 48.7226C8.57774 45.2708 8.87107 41.8252 8.95135 38.3919V38.3888Z" fill="white"/>
<path d="M32.1126 61.5479C28.679 61.6281 25.2331 61.9245 21.781 62.434C21.2561 65.1262 20.6509 67.8123 19.9654 70.4984C24.0227 69.8161 28.0738 69.4302 32.1157 69.3376V61.551L32.1126 61.5479Z" fill="white"/>
<path d="M46.2236 62.434C42.7715 61.9215 39.3256 61.6281 35.892 61.5479V69.3345C39.9338 69.4271 43.985 69.813 48.0423 70.4954C47.3537 67.8123 46.7485 65.1232 46.2267 62.4309L46.2236 62.434Z" fill="white"/>
<path d="M56.6355 51.949C53.8442 51.4612 51.0498 51.0629 48.2584 50.7541C48.5672 53.5452 48.9655 56.3394 49.4534 59.1304C52.572 59.6862 55.6907 60.4117 58.8093 61.304C57.9169 58.1857 57.1944 55.0673 56.6355 51.949Z" fill="white"/>
<path d="M44.4234 50.3867C41.5734 50.1552 38.7296 50.0162 35.892 49.973V57.7658C39.094 57.8368 42.3052 58.0869 45.5227 58.516C45.0749 55.8083 44.7075 53.0975 44.4234 50.3836V50.3867Z" fill="white"/>
<path d="M32.1126 49.973C29.2749 50.0162 26.4311 50.1552 23.5811 50.3867C23.3001 53.1006 22.9296 55.8114 22.4819 58.5191C25.6962 58.09 28.9075 57.8399 32.1126 57.7689V49.973Z" fill="white"/>
<path d="M59.0532 38.3888C59.1335 41.8221 59.4299 45.2677 59.9394 48.7195C62.6319 49.2443 65.3182 49.8495 68.0046 50.5349C67.3222 46.478 66.9362 42.4272 66.8436 38.3857H59.0563L59.0532 38.3888Z" fill="white"/>
<path d="M59.0532 34.6097H66.8405C66.9331 30.5682 67.3191 26.5175 68.0015 22.4605C65.3182 23.149 62.6288 23.7542 59.9363 24.276C59.4237 27.7278 59.1304 31.1734 59.0501 34.6066L59.0532 34.6097Z" fill="white"/>
<path d="M19.7461 50.7541C16.9548 51.0629 14.1604 51.4612 11.3691 51.949C10.8133 55.0673 10.0877 58.1857 9.19529 61.304C12.3139 60.4117 15.4325 59.6893 18.5512 59.1304C19.039 56.3394 19.4374 53.5452 19.7461 50.7541Z" fill="white"/>
<path d="M21.7779 10.5645C25.23 11.077 28.6759 11.3703 32.1095 11.4506V3.66091C28.0676 3.56829 24.0165 3.18235 19.9592 2.50002C20.6477 5.18304 21.256 7.87222 21.7779 10.5645Z" fill="white"/>
<path d="M35.892 11.4506C39.3255 11.3703 42.7715 11.0739 46.2236 10.5645C46.7485 7.87222 47.3537 5.18612 48.0392 2.50002C43.9819 3.18235 39.9307 3.56829 35.8889 3.66091V11.4475L35.892 11.4506Z" fill="white"/>
</g>
<path d="M93.272 56C90.3973 56 88.1947 55.2907 86.664 53.872C85.1333 52.4533 84.368 50.1573 84.368 46.984V33.32H80.28V26.88H84.368V21L91.928 20.216V26.88H98.088V33.32H91.928V46.592C91.928 48.384 92.712 49.28 94.28 49.28H97.416V56H93.272ZM100.615 56V26.88H107.951V32.424C108.436 30.3333 109.426 28.7467 110.919 27.664C112.412 26.544 114.428 26.0587 116.967 26.208V33.32H115.903C113.738 33.32 111.908 34.0107 110.415 35.392C108.922 36.7733 108.175 38.6773 108.175 41.104V56H100.615ZM130.29 56.672C128.2 56.672 126.314 56.1867 124.634 55.216C122.954 54.2453 121.629 52.864 120.658 51.072C119.688 49.2427 119.202 47.1147 119.202 44.688V26.88H126.762V42.84C126.762 45.3413 127.266 47.1707 128.274 48.328C129.282 49.4853 130.72 50.064 132.586 50.064C134.192 50.064 135.592 49.4853 136.786 48.328C138.018 47.1707 138.634 45.3413 138.634 42.84V26.88H146.194V56H138.858V51.632C138.149 53.312 137.104 54.5813 135.722 55.44C134.378 56.2613 132.568 56.672 130.29 56.672ZM150.654 67.2V26.88H158.102V31.584C158.886 29.9787 159.987 28.6907 161.406 27.72C162.862 26.7493 164.859 26.264 167.398 26.264C169.414 26.264 171.281 26.6747 172.998 27.496C174.753 28.28 176.283 29.3813 177.59 30.8C178.897 32.1813 179.923 33.8053 180.67 35.672C181.417 37.5013 181.79 39.4613 181.79 41.552C181.79 44.352 181.137 46.9093 179.83 49.224C178.561 51.5013 176.843 53.3307 174.678 54.712C172.513 56.056 170.086 56.728 167.398 56.728C164.897 56.728 162.937 56.28 161.518 55.384C160.099 54.4507 158.998 53.2187 158.214 51.688V67.2H150.654ZM166.166 49.896C167.771 49.896 169.171 49.504 170.366 48.72C171.598 47.936 172.55 46.9093 173.222 45.64C173.894 44.3333 174.23 42.952 174.23 41.496C174.23 39.9653 173.894 38.5653 173.222 37.296C172.55 36.0267 171.598 35.0187 170.366 34.272C169.171 33.488 167.771 33.096 166.166 33.096C164.523 33.096 163.086 33.488 161.854 34.272C160.622 35.056 159.67 36.0827 158.998 37.352C158.326 38.6213 157.99 40.0213 157.99 41.552C157.99 43.0453 158.326 44.4267 158.998 45.696C159.67 46.9653 160.622 47.992 161.854 48.776C163.086 49.5227 164.523 49.896 166.166 49.896ZM185.162 56V15.12H192.722V56H185.162ZM210.465 56.728C207.814 56.728 205.388 56.056 203.185 54.712C201.02 53.3307 199.284 51.5013 197.977 49.224C196.708 46.9093 196.073 44.352 196.073 41.552C196.073 39.4613 196.446 37.5013 197.193 35.672C197.94 33.8053 198.966 32.1813 200.273 30.8C201.58 29.3813 203.092 28.28 204.809 27.496C206.564 26.6747 208.449 26.264 210.465 26.264C213.004 26.264 214.982 26.7493 216.401 27.72C217.82 28.6533 218.921 29.904 219.705 31.472V26.88H227.209V56H219.873V51.24C219.089 52.8827 217.969 54.208 216.513 55.216C215.094 56.224 213.078 56.728 210.465 56.728ZM211.697 49.896C213.377 49.896 214.814 49.5227 216.009 48.776C217.241 47.992 218.193 46.9653 218.865 45.696C219.537 44.4267 219.873 43.0453 219.873 41.552C219.873 40.0213 219.537 38.6213 218.865 37.352C218.193 36.0827 217.241 35.056 216.009 34.272C214.814 33.488 213.377 33.096 211.697 33.096C210.092 33.096 208.673 33.488 207.441 34.272C206.246 35.0187 205.313 36.0267 204.641 37.296C203.969 38.5653 203.633 39.9653 203.633 41.496C203.633 42.952 203.969 44.3333 204.641 45.64C205.313 46.9093 206.246 47.936 207.441 48.72C208.673 49.504 210.092 49.896 211.697 49.896ZM242.733 56C239.858 56 237.656 55.2907 236.125 53.872C234.594 52.4533 233.829 50.1573 233.829 46.984V33.32H229.741V26.88H233.829V21L241.389 20.216V26.88H247.549V33.32H241.389V46.592C241.389 48.384 242.173 49.28 243.741 49.28H246.877V56H242.733Z" fill="white"/>
<defs>
<clipPath id="clip0_0_3">
<rect width="68" height="68" fill="white" transform="translate(0 2.5)"/>
</clipPath>
</defs>
</svg>
